<svg width="64" height="64" viewBox="0 0 64 64" fill="none" xmlns="http://www.w3.org/2000/svg">
  <circle cx="32" cy="32" r="30" fill="#F7931A"/>
  <circle cx="32" cy="32" r="29" stroke="white" stroke-opacity="0.12" stroke-width="2"/>
  <path d="M36.8 27.9C36.5 30.4 34.2 31.2 31.2 31.2C30.5 31.2 29.8 31.2 29.1 31.1L30 24.7C30.8 24.7 31.7 24.6 32.4 24.6C35.1 24.6 37.1 25.3 36.8 27.9ZM35.5 36.5C35.2 39.3 32.7 39.7 29.5 39.7C28.6 39.7 27.7 39.6 26.8 39.5L27.8 32.3C28.8 32.3 29.8 32.2 30.7 32.2C33.6 32.2 35.8 32.9 35.5 36.5ZM40.1 27.4C40.3 24 38 22.2 34.8 21.1L35.5 17H33L32.3 20.9C31.6 20.8 30.8 20.7 30 20.7L30.7 17H28.2L27.5 20.9C26.9 20.9 26.3 20.9 25.8 20.9L25.8 20.9L22.3 20.9L21.9 23.7C21.9 23.7 23.8 23.7 23.8 23.8C24.9 23.8 25.1 24.2 25 24.8L23.4 36.3C23.3 36.7 23 37.1 22.2 37.1C22.2 37.2 20.3 37.1 20.3 37.1L19.5 40.3H22.9C23.5 40.3 24.1 40.3 24.7 40.3L24 44.3H26.5L27.2 40.4C28 40.5 28.8 40.5 29.6 40.5L28.9 44.3H31.4L32.1 40.4C36.5 40.2 39.6 38.9 40.1 34.8C40.5 31.5 38.9 30.1 36.4 29.5C38.2 28.9 39.7 27.7 40.1 27.4Z" fill="white"/>
</svg>
