<svg width="64" height="64" viewBox="0 0 64 64" fill="none" xmlns="http://www.w3.org/2000/svg">
  <circle cx="32" cy="32" r="30" fill="#4C71FF"/>
  <circle cx="32" cy="32" r="29" stroke="white" stroke-opacity="0.12" stroke-width="2"/>
  <path d="M40.5 22.8C38.8 20.8 36 19.6 32.5 19.6C26.8 19.6 22.6 23.2 20.9 29H17.5V32.2H20.3C20.3 32.5 20.3 32.8 20.3 33.1C20.3 33.6 20.3 34.1 20.4 34.6H17.5V37.8H21C22.8 43.3 26.9 46.8 32.4 46.8C35.9 46.8 38.6 45.7 40.4 43.7L37.4 40.5C36.2 41.8 34.6 42.5 32.8 42.5C29.8 42.5 27.5 40.8 26.2 37.8H36.8V34.6H25.4C25.3 34.1 25.3 33.6 25.3 33.1C25.3 32.8 25.3 32.5 25.4 32.2H36.8V29H26.1C27.3 25.8 29.7 23.9 32.9 23.9C34.7 23.9 36.2 24.6 37.5 25.9L40.5 22.8Z" fill="white"/>
</svg>
