<svg width="64" height="64" viewBox="0 0 64 64" fill="none" xmlns="http://www.w3.org/2000/svg">
  <circle cx="32" cy="32" r="30" fill="#19C08A"/>
  <circle cx="32" cy="32" r="29" stroke="white" stroke-opacity="0.12" stroke-width="2"/>
  <path d="M35.7 19.8V23.4C39.8 24.2 42.4 26.8 42.8 30.4H37.5C37.1 28.8 35.8 27.8 33.6 27.8C31.4 27.8 30 28.7 30 30.2C30 31.5 31.2 32.1 34.4 32.8C40.1 34 43.2 35.9 43.2 40.3C43.2 44.4 40.2 47.1 35.7 47.8V51.4H31.7V47.8C26.8 47 23.8 44 23.4 39.9H28.8C29.3 42 31 43.3 33.7 43.3C36.2 43.3 37.8 42.3 37.8 40.7C37.8 39.2 36.4 38.5 32.9 37.7C27.6 36.5 24.6 34.8 24.6 30.6C24.6 26.8 27.5 24.2 31.7 23.4V19.8H35.7Z" fill="white"/>
</svg>
