<svg xmlns="http://www.w3.org/2000/svg" viewBox="0 0 24 24" fill="none">
  <path fill="#E6EBFF" d="M12 2C6.48 2 2 6.58 2 12.22c0 4.5 2.87 8.32 6.84 9.67.5.1.68-.22.68-.49 0-.24-.01-.88-.01-1.73-2.78.62-3.37-1.37-3.37-1.37-.46-1.18-1.11-1.5-1.11-1.5-.91-.63.07-.62.07-.62 1 .08 1.53 1.05 1.53 1.05.9 1.57 2.35 1.12 2.92.85.09-.67.35-1.12.64-1.38-2.22-.26-4.56-1.14-4.56-5.08 0-1.12.39-2.04 1.03-2.76-.1-.26-.45-1.31.1-2.73 0 0 .85-.28 2.79 1.05A9.54 9.54 0 0 1 12 6.83a9.54 9.54 0 0 1 2.54.35c1.94-1.33 2.79-1.05 2.79-1.05.55 1.42.2 2.47.1 2.73.64.72 1.03 1.64 1.03 2.76 0 3.95-2.34 4.82-4.57 5.08.36.32.68.95.68 1.92 0 1.39-.01 2.51-.01 2.85 0 .27.18.59.69.49A10.23 10.23 0 0 0 22 12.22C22 6.58 17.52 2 12 2Z"/>
</svg>
