<svg width="41" height="32" viewBox="0 0 41 32" fill="none" xmlns="http://www.w3.org/2000/svg">
<g clip-path="url(#clip0_1_1704)">
<path d="M24.3967 21.0859V21.0771C22.054 21.0302 20.1691 19.1548 20.1691 16.8442C20.1691 19.1499 18.291 21.0224 15.9551 21.0762V21.0859C18.291 21.1397 20.1691 23.0122 20.1691 25.3179C20.1681 23.0083 22.054 21.1329 24.3967 21.0859Z" fill="white"/>
<path d="M23.5298 -0.00012207H17.0032C16.1616 -0.00012207 15.3911 0.471177 15.0053 1.22213L0.143289 30.1503C-0.289218 30.9932 0.319603 31.9974 1.26449 31.9974H8.76906C9.61849 31.9974 10.3949 31.5173 10.7767 30.7566L14.7686 22.8041C15.3112 21.7227 15.3024 20.4457 14.7443 19.372L11.8716 13.8455C11.0904 12.3426 12.1775 10.5435 13.8666 10.5454L26.6811 10.5591C28.3702 10.5611 29.4534 12.3622 28.6692 13.8631L25.4361 20.0546C25.0991 20.6989 25.0933 21.4675 25.4196 22.1177L29.7563 30.7576C30.1382 31.5183 30.9146 31.9984 31.764 31.9984H39.2686C40.2134 31.9984 40.8223 30.9942 40.3898 30.1513L25.5277 1.22213C25.142 0.471177 24.3705 -0.00012207 23.5298 -0.00012207Z" fill="white"/>
</g>
<defs>
<clipPath id="clip0_1_1704">
<rect width="40.5309" height="31.9965" fill="white"/>
</clipPath>
</defs>
</svg>
